<mxfile host="Electron" modified="2024-02-01T14:42:47.877Z" agent="Mozilla/5.0 (X11; Linux x86_64) AppleWebKit/537.36 (KHTML, like Gecko) draw.io/21.2.8 Chrome/112.0.5615.165 Electron/24.2.0 Safari/537.36" etag="ukSbG1hBIHkHrjpDhsXK" version="21.2.8" type="device">
  <diagram name="Seite-1" id="1DdBGCkQfgjVxy8bUu3-">
    <mxGraphModel dx="876" dy="544" grid="1" gridSize="10" guides="1" tooltips="1" connect="1" arrows="1" fold="1" page="1" pageScale="1" pageWidth="827" pageHeight="1169" math="0" shadow="0">
      <root>
        <mxCell id="0" />
        <mxCell id="1" parent="0" />
        <mxCell id="PRSGPCVL4vfsCmMcpQX3-1" value="entity tx_buffer is&#xa;    Port ( clk              : in  STD_LOGIC;      -- Clock input&#xa;           wen              : in  STD_LOGIC;      -- Write enable&#xa;           data_in          : in  STD_LOGIC_VECTOR (23 downto 0); -- Input data&#xa;           data_out         : out STD_LOGIC_VECTOR (23 downto 0) := X&quot;eeeeee&quot;;  -- Output data&#xa;           o_rdy_to_fetch   : out std_logic&#xa;        );&#xa;end tx_buffer;" style="text;whiteSpace=wrap;html=1;" vertex="1" parent="1">
          <mxGeometry x="297" width="530" height="140" as="geometry" />
        </mxCell>
        <mxCell id="PRSGPCVL4vfsCmMcpQX3-2" value="" style="rounded=0;whiteSpace=wrap;html=1;" vertex="1" parent="1">
          <mxGeometry width="240" height="90" as="geometry" />
        </mxCell>
        <mxCell id="PRSGPCVL4vfsCmMcpQX3-3" value="clk" style="text;html=1;align=left;verticalAlign=middle;resizable=0;points=[];autosize=1;strokeColor=none;fillColor=none;" vertex="1" parent="1">
          <mxGeometry width="40" height="30" as="geometry" />
        </mxCell>
        <mxCell id="PRSGPCVL4vfsCmMcpQX3-4" value="wen" style="text;html=1;align=left;verticalAlign=middle;resizable=0;points=[];autosize=1;strokeColor=none;fillColor=none;" vertex="1" parent="1">
          <mxGeometry y="30" width="50" height="30" as="geometry" />
        </mxCell>
        <mxCell id="PRSGPCVL4vfsCmMcpQX3-5" value="data_in" style="text;html=1;align=left;verticalAlign=middle;resizable=0;points=[];autosize=1;strokeColor=none;fillColor=none;" vertex="1" parent="1">
          <mxGeometry y="60" width="60" height="30" as="geometry" />
        </mxCell>
        <mxCell id="PRSGPCVL4vfsCmMcpQX3-6" value="data_out" style="text;html=1;align=right;verticalAlign=middle;resizable=0;points=[];autosize=1;strokeColor=none;fillColor=none;" vertex="1" parent="1">
          <mxGeometry x="170" width="70" height="30" as="geometry" />
        </mxCell>
        <mxCell id="PRSGPCVL4vfsCmMcpQX3-8" value="o_rdy_to_fetch" style="text;html=1;align=right;verticalAlign=middle;resizable=0;points=[];autosize=1;strokeColor=none;fillColor=none;" vertex="1" parent="1">
          <mxGeometry x="140" y="60" width="100" height="30" as="geometry" />
        </mxCell>
        <mxCell id="PRSGPCVL4vfsCmMcpQX3-9" value="tx_buffer" style="text;html=1;strokeColor=none;fillColor=none;align=center;verticalAlign=middle;whiteSpace=wrap;rounded=0;" vertex="1" parent="1">
          <mxGeometry x="90" y="30" width="60" height="30" as="geometry" />
        </mxCell>
      </root>
    </mxGraphModel>
  </diagram>
</mxfile>
